<svg
	xmlns="http://www.w3.org/2000/svg" viewBox="0 0 678.14 189.69">
	<defs>
		<style>.cls-1{fill:#fff;}.cls-2{fill:#cc2e2f;}.cls-3{fill:#333;}</style>
	</defs>
	<title>Ativo 1</title>
	<g id="Camada_2" data-name="Camada 2">
		<g id="Camada_1-2" data-name="Camada 1">
			<circle class="cls-1" cx="94.85" cy="94.85" r="94.85"/>
			<path class="cls-2" d="M94.43,168a70.85,70.85,0,0,1-28.52-5.8,74.23,74.23,0,0,1-39.07-39.07A70.87,70.87,0,0,1,21,94.64,71.63,71.63,0,0,1,26.84,66,73.94,73.94,0,0,1,65.91,26.84,70.9,70.9,0,0,1,94.43,21a71.65,71.65,0,0,1,28.64,5.8A73.64,73.64,0,0,1,162.23,66,71.68,71.68,0,0,1,168,94.64a70.5,70.5,0,0,1-6,29,77.45,77.45,0,0,1-16.5,23.74l-8.41,8.25h30.49A94.77,94.77,0,1,0,155.17,168Z"/>
			<path class="cls-2" d="M73.61,70.8,90.15,87.35v-54l-5.58.9a59.09,59.09,0,0,0-13.83,4A61.13,61.13,0,0,0,38.19,70.75a61.77,61.77,0,0,0,0,47.58,61.13,61.13,0,0,0,32.56,32.56,59.94,59.94,0,0,0,23.69,4.77h.64a58.07,58.07,0,0,0,23.63-4.9,62.15,62.15,0,0,0,19.22-13.2h0a62.91,62.91,0,0,0,13-19.31,59.22,59.22,0,0,0,4.77-23.59,60.53,60.53,0,0,0-4.77-23.9,61.13,61.13,0,0,0-32.56-32.56,58.94,58.94,0,0,0-12.86-3.8l-5.65-1V87.06l16.55-16.28a4.84,4.84,0,0,1,6.83,6.85l-24.77,24.8A4.86,4.86,0,0,1,95,103.87a4.81,4.81,0,0,1-3.4-1.39L66.78,77.66a4.84,4.84,0,1,1,6.83-6.86Z"/>
			<path class="cls-3" d="M281.72,42.42a57.42,57.42,0,0,1,23,4.67A59.18,59.18,0,0,1,336.2,78.52a57.42,57.42,0,0,1,4.67,23A56.53,56.53,0,0,1,336,124.94a61.76,61.76,0,0,1-13.22,19H338a8.3,8.3,0,0,1,8.3,8.3h0a8.3,8.3,0,0,1-8.3,8.3h-56.3a56.8,56.8,0,0,1-23-4.67,59.63,59.63,0,0,1-31.35-31.35,56.8,56.8,0,0,1-4.67-23,57.38,57.38,0,0,1,4.67-23,59.41,59.41,0,0,1,31.35-31.43A56.83,56.83,0,0,1,281.72,42.42ZM282.2,144a40,40,0,0,0,16.36-3.38,43.06,43.06,0,0,0,13.38-9.19,43.61,43.61,0,0,0,9-13.46,40.86,40.86,0,0,0,3.3-16.36A41.86,41.86,0,0,0,321,85a42.48,42.48,0,0,0-22.65-22.65,43,43,0,0,0-33,0A42.48,42.48,0,0,0,242.63,85a43,43,0,0,0,0,33,42.48,42.48,0,0,0,22.65,22.65,41.41,41.41,0,0,0,16.44,3.3Z"/>
			<path class="cls-3" d="M344.4,42.22h81.52v16.6H382.36v92.84a8.54,8.54,0,0,1-8.54,8.54h0a8.54,8.54,0,0,1-8.54-8.54V58.83H344.4a8.3,8.3,0,0,1-8.3-8.3h0A8.3,8.3,0,0,1,344.4,42.22Z"/>
			<path class="cls-3" d="M490.18,42.22h0a8.46,8.46,0,0,1,8.46,8.46v70.52a37.36,37.36,0,0,1-3.14,15.31,38.38,38.38,0,0,1-8.62,12.33,41.7,41.7,0,0,1-12.73,8.3,39.77,39.77,0,0,1-15.64,3.06,38.76,38.76,0,0,1-15.39-3.06,40.91,40.91,0,0,1-12.57-8.3A38.08,38.08,0,0,1,419,121.21V50.69a8.46,8.46,0,0,1,8.46-8.46h0a8.46,8.46,0,0,1,8.46,8.46v70.52a21.91,21.91,0,0,0,1.77,8.78,23.78,23.78,0,0,0,4.84,7.25,21.89,21.89,0,0,0,7.25,4.92,22.48,22.48,0,0,0,8.87,1.77A22.88,22.88,0,0,0,475,137.24a23.14,23.14,0,0,0,4.92-7.25,22,22,0,0,0,1.77-8.78V50.69A8.46,8.46,0,0,1,490.18,42.22Z"/>
			<path class="cls-3" d="M580.45,97a.87.87,0,0,0,.15,1.4A29.29,29.29,0,0,1,590.91,109a32.56,32.56,0,0,1,4.27,16.68,33.12,33.12,0,0,1-2.74,13.38,36.29,36.29,0,0,1-7.41,11,34.57,34.57,0,0,1-11,7.5,33.09,33.09,0,0,1-13.38,2.74H524.3a9.54,9.54,0,0,1-9.54-9.54V51.28a9.05,9.05,0,0,1,9.05-9.05h36.08a30.67,30.67,0,0,1,12.25,2.5,32.11,32.11,0,0,1,17,17,31.07,31.07,0,0,1,2.5,12.41,25.8,25.8,0,0,1-1,7.5A29.59,29.59,0,0,1,587.85,88,35.15,35.15,0,0,1,584,93.4,44.33,44.33,0,0,1,580.45,97ZM532,90.19a.87.87,0,0,0,.87.87H557a16.84,16.84,0,0,0,6.61-1.29,15.87,15.87,0,0,0,5.32-3.63,17.45,17.45,0,0,0,3.55-5.4,17.27,17.27,0,0,0-3.55-18.54A16.21,16.21,0,0,0,557,57.38H532.87a.87.87,0,0,0-.87.87Zm25.79,55a18.08,18.08,0,0,0,7.58-1.61,20.94,20.94,0,0,0,6.21-4.27,19.77,19.77,0,0,0,4.13-6.06,19.11,19.11,0,0,0,.06-15.14,19.68,19.68,0,0,0-10.4-10.4,18.92,18.92,0,0,0-7.58-1.53H532.87a.87.87,0,0,0-.87.87v37.26a.87.87,0,0,0,.87.87Z"/>
			<path class="cls-3" d="M625.59,143.13h44.08a8.46,8.46,0,0,1,8.46,8.46h0a8.46,8.46,0,0,1-8.46,8.46H618.79a10.28,10.28,0,0,1-10.28-10.28V51.53a9.15,9.15,0,0,1,9.15-9.15h51.06a8.3,8.3,0,0,1,8.3,8.3h0a8.3,8.3,0,0,1-8.3,8.3H625.59V90.24h38.2a8.06,8.06,0,0,1,8.06,8.06h0a8.06,8.06,0,0,1-8.06,8.06h-38.2Z"/>
		</g>
	</g>
</svg>
