<?xml version="1.0" encoding="utf-8"?>
<!-- Generator: Adobe Illustrator 21.0.0, SVG Export Plug-In . SVG Version: 6.00 Build 0)  -->
<svg version="1.1" id="Camada_1" xmlns="http://www.w3.org/2000/svg" xmlns:xlink="http://www.w3.org/1999/xlink" x="0px" y="0px"
	 viewBox="0 0 600 600" style="enable-background:new 0 0 600 600;" xml:space="preserve">
<style type="text/css">
	.st0{fill:#333333;}
	.st1{fill:#CC2E2F;}
</style>
<g>
	<g>
		<path class="st0" d="M106,409.4c9.4,0,18.3,1.8,26.6,5.4c8.3,3.6,15.5,8.5,21.7,14.6c6.1,6.1,11,13.4,14.6,21.7
			c3.6,8.3,5.4,17.2,5.4,26.6c0,9.7-1.9,18.7-5.6,27c-3.7,8.3-8.8,15.6-15.2,21.9h17.5c5.3,0,9.6,4.3,9.6,9.6v0
			c0,5.3-4.3,9.6-9.6,9.6h-64.7H106c-9.4,0-18.2-1.8-26.5-5.4c-8.2-3.6-15.4-8.5-21.6-14.6c-6.1-6.1-11-13.3-14.6-21.6
			c-3.6-8.2-5.4-17.1-5.4-26.5c0-9.4,1.8-18.3,5.4-26.6c3.6-8.3,8.5-15.5,14.6-21.7c6.1-6.1,13.3-11,21.6-14.6
			C87.7,411.2,96.5,409.4,106,409.4z M106.5,526.5c6.7,0,13-1.3,18.9-3.9c5.9-2.6,11-6.1,15.4-10.6c4.4-4.5,7.9-9.6,10.4-15.5
			c2.5-5.9,3.8-12.2,3.8-18.9c0-6.8-1.3-13.2-3.8-19.1c-2.5-5.9-6-11.2-10.5-15.6c-4.5-4.5-9.7-8-15.6-10.5
			c-5.9-2.5-12.3-3.8-19.1-3.8c-6.7,0-13,1.3-19,3.8c-5.9,2.5-11.2,6-15.6,10.5c-4.5,4.5-8,9.7-10.5,15.6
			c-2.5,5.9-3.8,12.3-3.8,19.1c0,6.7,1.3,13,3.8,19c2.5,5.9,6,11.2,10.5,15.6c4.5,4.5,9.7,8,15.6,10.5c5.9,2.5,12.3,3.8,19,3.8
			H106.5z"/>
		<path class="st0" d="M178.2,409.2h94v19.1H222v107.1c0,5.4-4.4,9.9-9.9,9.9h0c-5.4,0-9.9-4.4-9.9-9.9V428.3h-24.1
			c-5.3,0-9.6-4.3-9.6-9.6l0,0C168.7,413.5,172.9,409.2,178.2,409.2z"/>
		<path class="st0" d="M346.3,409.2L346.3,409.2c5.4,0,9.8,4.4,9.8,9.8v81.3c0,6.3-1.2,12.2-3.6,17.7c-2.4,5.5-5.7,10.2-9.9,14.2
			c-4.2,4-9.1,7.2-14.7,9.6c-5.6,2.4-11.6,3.5-18,3.5c-6.3,0-12.2-1.2-17.8-3.5c-5.5-2.4-10.3-5.5-14.5-9.6c-4.2-4-7.4-8.8-9.8-14.2
			c-2.4-5.5-3.5-11.3-3.5-17.7v-81.3c0-5.4,4.4-9.8,9.8-9.8l0,0c5.4,0,9.8,4.4,9.8,9.8v81.3c0,3.6,0.7,7,2,10.1
			c1.4,3.2,3.2,5.9,5.6,8.4c2.4,2.4,5.1,4.3,8.4,5.7c3.2,1.4,6.6,2,10.2,2c3.7,0,7.2-0.7,10.4-2c3.2-1.4,6-3.3,8.5-5.7
			c2.4-2.4,4.3-5.2,5.7-8.4c1.4-3.2,2-6.5,2-10.1v-81.3C336.6,413.5,340.9,409.2,346.3,409.2z"/>
		<path class="st0" d="M450.4,472.4c-0.5,0.5-0.4,1.3,0.2,1.6c4.9,2.9,8.9,7,11.9,12.2c3.3,5.6,4.9,12.1,4.9,19.2
			c0,5.5-1.1,10.6-3.2,15.4c-2.1,4.8-5,9.1-8.5,12.7c-3.6,3.7-7.8,6.5-12.6,8.6c-4.8,2.1-10,3.2-15.4,3.2h-42c-6.1,0-11-4.9-11-11
			V419.6c0-5.8,4.7-10.4,10.4-10.4h41.6c5,0,9.7,1,14.1,2.9c4.5,1.9,8.4,4.6,11.7,7.9c3.3,3.3,6,7.2,7.9,11.7
			c1.9,4.5,2.9,9.2,2.9,14.3c0,3.1-0.4,6-1.2,8.6c-0.8,2.7-1.9,5.1-3.2,7.3c-1.3,2.2-2.8,4.3-4.5,6.2
			C453.2,469.7,451.8,471.1,450.4,472.4z M394.6,464.5c0,0.6,0.5,1,1,1h27.8c2.7,0,5.3-0.5,7.6-1.5c2.4-1,4.4-2.4,6.1-4.2
			c1.7-1.8,3.1-3.9,4.1-6.2c1-2.4,1.5-4.8,1.5-7.4c0-5.6-1.9-10.2-5.6-13.9c-3.7-3.7-8.3-5.6-13.8-5.6h-27.8c-0.6,0-1,0.5-1,1V464.5
			z M424.3,527.9c3.1,0,6-0.6,8.7-1.9c2.7-1.2,5.1-2.9,7.2-4.9c2-2,3.6-4.3,4.8-7c1.2-2.8,1.9-5.8,1.8-8.8c0-3-0.6-5.9-1.8-8.6
			c-1.2-2.7-2.8-5.1-4.8-7.2c-2-2-4.4-3.7-7.2-4.8c-2.7-1.2-5.6-1.8-8.7-1.8h-28.7c-0.6,0-1,0.5-1,1v43c0,0.6,0.5,1,1,1H424.3z"/>
		<path class="st0" d="M502.5,525.5h50.8c5.4,0,9.8,4.4,9.8,9.8l0,0c0,5.4-4.4,9.8-9.8,9.8h-58.7c-6.5,0-11.9-5.3-11.9-11.9V419.9
			c0-5.8,4.7-10.5,10.5-10.5h58.9c5.3,0,9.6,4.3,9.6,9.6v0c0,5.3-4.3,9.6-9.6,9.6h-49.7V450v11.1v3.5h44.1c5.1,0,9.3,4.2,9.3,9.3v0
			c0,5.1-4.2,9.3-9.3,9.3h-44.1V525.5z"/>
	</g>
	<g>
		<path class="st1" d="M297.4,325c-16.2,0-31.6-3.1-45.8-9.3c-14.2-6.2-26.8-14.7-37.4-25.3c-10.6-10.6-19.1-23.2-25.3-37.4
			c-6.2-14.1-9.3-29.5-9.3-45.8c0-16.2,3.1-31.7,9.3-45.9c6.2-14.3,14.7-27,25.3-37.5c10.6-10.6,23.1-19.1,37.4-25.3
			c14.1-6.2,29.5-9.3,45.8-9.3c16.2,0,31.7,3.1,45.9,9.3c14.4,6.2,27,14.7,37.5,25.3c10.6,10.6,19.1,23.2,25.3,37.5
			c6.2,14.3,9.3,29.7,9.3,46c0,16.6-3.2,32.3-9.6,46.5c-6.4,14.3-15.3,27.2-26.5,38.1l-13.5,13.2h48.9
			c22.1-26.4,35.4-60.4,35.4-97.6c0-84-68.1-152.2-152.2-152.2s-152.2,68.1-152.2,152.2S214,359.7,298.1,359.7
			c36.8,0,70.5-13,96.8-34.7H297.4z"/>
		<path class="st1" d="M264,169l26.5,26.5v-86.7l-8.9,1.4c-7.7,1.2-15.1,3.4-22.2,6.4c-11.8,5.1-22.3,12.1-31.2,21
			c-8.9,8.9-16,19.4-21,31.2c-5.1,11.9-7.6,24.8-7.6,38.3c0,13.3,2.6,26.1,7.6,38c5,11.8,12.1,22.3,21,31.2c8.9,8.9,19.4,16,31.2,21
			c11.9,5.1,24.7,7.6,38,7.6h1c13.4,0,26.1-2.6,37.9-7.9c11.7-5.2,22.1-12.3,30.8-21.2l0,0c8.7-8.9,15.7-19.3,20.8-31
			c5.1-11.8,7.7-24.5,7.7-37.9c0-13.5-2.6-26.4-7.6-38.3c-5.1-11.8-12.1-22.3-21-31.2c-8.9-8.9-19.4-16-31.2-21
			c-6.5-2.8-13.4-4.8-20.6-6.1l-9.1-1.6v86.1l26.5-26.1c3.1-3,8-3,11,0c3,3,3,7.9,0,10.9l-39.7,39.8c-1.5,1.5-3.5,2.3-5.5,2.3
			c-2.1,0-4-0.8-5.5-2.2L253.1,180c-3-3-3-8,0-11C256.1,166,261,166,264,169z"/>
	</g>
</g>
</svg>
