<svg xmlns="http://www.w3.org/2000/svg" viewBox="0 0 382.37 356.94"><defs><style>.cls-1{fill:#fff;}.cls-2{fill:#333;}.cls-3{fill:#cc2e2f;}</style></defs><title>Ativo 2</title><g id="Camada_2" data-name="Camada 2"><g id="Camada_1-2" data-name="Camada 1"><circle class="cls-1" cx="189.42" cy="110.78" r="110.78"/><path class="cls-2" d="M49.53,257.75a48.21,48.21,0,0,1,19.35,3.92,49.69,49.69,0,0,1,26.39,26.39,48.21,48.21,0,0,1,3.92,19.35A47.46,47.46,0,0,1,95.14,327,51.85,51.85,0,0,1,84,343H96.81a7,7,0,0,1,7,7h0a7,7,0,0,1-7,7H49.53A47.69,47.69,0,0,1,30.25,353,50.07,50.07,0,0,1,3.92,326.7,47.69,47.69,0,0,1,0,307.41a48.18,48.18,0,0,1,3.92-19.35,49.88,49.88,0,0,1,26.32-26.39A47.72,47.72,0,0,1,49.53,257.75ZM49.94,343a33.59,33.59,0,0,0,13.74-2.84,36.15,36.15,0,0,0,11.23-7.71,36.62,36.62,0,0,0,7.58-11.3,34.31,34.31,0,0,0,2.77-13.74,35.14,35.14,0,0,0-2.77-13.94,35.66,35.66,0,0,0-19-19,36.06,36.06,0,0,0-27.74,0,35.66,35.66,0,0,0-19,19,36.07,36.07,0,0,0,0,27.74,35.66,35.66,0,0,0,19,19A34.77,34.77,0,0,0,49.53,343Z"/><path class="cls-2" d="M102.16,257.58H170.6v13.94H134v78a7.17,7.17,0,0,1-7.17,7.17h0a7.17,7.17,0,0,1-7.17-7.17v-78H102.16a7,7,0,0,1-7-7h0A7,7,0,0,1,102.16,257.58Z"/><path class="cls-2" d="M224.55,257.58h0a7.1,7.1,0,0,1,7.1,7.1V323.9A31.37,31.37,0,0,1,229,336.75a32.22,32.22,0,0,1-7.24,10.35,35,35,0,0,1-10.69,7A33.39,33.39,0,0,1,198,356.65,32.55,32.55,0,0,1,185,354.08a34.34,34.34,0,0,1-10.56-7,32,32,0,0,1-9.68-23.21V264.69a7.1,7.1,0,0,1,7.1-7.1h0a7.1,7.1,0,0,1,7.1,7.1V323.9a18.39,18.39,0,0,0,1.49,7.38,20,20,0,0,0,4.06,6.09,18.38,18.38,0,0,0,6.09,4.13A18.87,18.87,0,0,0,198.1,343a19.21,19.21,0,0,0,13.74-5.62,19.43,19.43,0,0,0,4.13-6.09,18.43,18.43,0,0,0,1.49-7.38V264.69A7.1,7.1,0,0,1,224.55,257.58Z"/><path class="cls-2" d="M300.35,303.6a.73.73,0,0,0,.12,1.18,24.6,24.6,0,0,1,8.66,8.9,27.34,27.34,0,0,1,3.59,14,27.81,27.81,0,0,1-2.3,11.23,30.47,30.47,0,0,1-6.23,9.27,29,29,0,0,1-9.2,6.29,27.78,27.78,0,0,1-11.23,2.3H253.2a8,8,0,0,1-8-8V265.19a7.6,7.6,0,0,1,7.6-7.6h30.29a25.75,25.75,0,0,1,10.29,2.1A27,27,0,0,1,307.65,274a26.09,26.09,0,0,1,2.1,10.42,21.67,21.67,0,0,1-.88,6.29,24.84,24.84,0,0,1-2.3,5.35,29.52,29.52,0,0,1-3.25,4.53A37.22,37.22,0,0,1,300.35,303.6Zm-40.68-5.75a.73.73,0,0,0,.73.73h20.24a14.14,14.14,0,0,0,5.55-1.08,13.32,13.32,0,0,0,4.47-3,14.65,14.65,0,0,0,3-4.53,14.5,14.5,0,0,0-3-15.56,13.61,13.61,0,0,0-10-4.06H260.4a.73.73,0,0,0-.73.73Zm21.65,46.21a15.18,15.18,0,0,0,6.36-1.35,17.58,17.58,0,0,0,5.21-3.59,16.59,16.59,0,0,0,3.46-5.09,16,16,0,0,0,.05-12.71,16.52,16.52,0,0,0-8.73-8.73,15.88,15.88,0,0,0-6.36-1.29H260.4a.73.73,0,0,0-.73.73v31.28a.73.73,0,0,0,.73.73Z"/><path class="cls-2" d="M338.25,342.3h37a7.1,7.1,0,0,1,7.1,7.1h0a7.1,7.1,0,0,1-7.1,7.1H332.54a8.63,8.63,0,0,1-8.63-8.63V265.4a7.68,7.68,0,0,1,7.68-7.68h42.87a7,7,0,0,1,7,7h0a7,7,0,0,1-7,7h-36.2V297.9h32.07a6.77,6.77,0,0,1,6.77,6.77h0a6.77,6.77,0,0,1-6.77,6.77H338.25Z"/><path class="cls-3" d="M188.94,196.27a82.76,82.76,0,0,1-33.32-6.77A86.71,86.71,0,0,1,110,143.87a82.78,82.78,0,0,1-6.77-33.32A83.67,83.67,0,0,1,110,77.09a86.36,86.36,0,0,1,45.63-45.75,82.81,82.81,0,0,1,33.32-6.77,83.7,83.7,0,0,1,33.45,6.78,86,86,0,0,1,45.74,45.74,83.72,83.72,0,0,1,6.78,33.46,82.35,82.35,0,0,1-7,33.89,90.46,90.46,0,0,1-19.27,27.73l-9.82,9.64h35.62a110.7,110.7,0,1,0-14.55,14.46Z"/><path class="cls-3" d="M164.62,82.7,183.94,102V38.91l-6.51,1a69,69,0,0,0-16.15,4.65,71.4,71.4,0,0,0-38,38,72.15,72.15,0,0,0,0,55.58,71.4,71.4,0,0,0,38,38,70,70,0,0,0,27.67,5.57h.75a67.83,67.83,0,0,0,27.61-5.72,72.59,72.59,0,0,0,22.44-15.42h0a73.49,73.49,0,0,0,15.14-22.56,69.17,69.17,0,0,0,5.58-27.56,70.7,70.7,0,0,0-5.57-27.92,71.4,71.4,0,0,0-38-38,68.84,68.84,0,0,0-15-4.44L195.23,39v62.7l19.33-19a5.65,5.65,0,0,1,8,8l-28.94,29a5.68,5.68,0,0,1-4,1.67,5.62,5.62,0,0,1-4-1.63l-29-29a5.65,5.65,0,1,1,8-8Z"/></g></g></svg>